<?xml version="1.0" encoding="UTF-8" standalone="no"?>
<!-- Created with Inkscape (http://www.inkscape.org/) -->

<svg
   width="81.597847mm"
   height="16.111614mm"
   viewBox="0 0 308.40132 60.894291"
   version="1.1"
   id="svg1"
   xmlns="http://www.w3.org/2000/svg"
   xmlns:svg="http://www.w3.org/2000/svg">
  <defs
     id="defs1" />
  <g
     id="layer1"
     transform="translate(-265,-479.94563)">
    <g
       id="g3">
      <path
         style="font-weight:600;font-size:85.3333px;font-family:Arimo;-inkscape-font-specification:'Arimo Semi-Bold';text-align:center;text-anchor:middle;white-space:pre;fill:#020415;fill-opacity:1;stroke-width:1.00791"
         d="m 544.21405,514.97033 v 25.02965 h -10.37302 v -35.44467 q 0,-3.73765 -0.12599,-6.08942 -0.084,-2.39378 -0.20998,-3.90564 h 9.91107 q 0.084,0.58795 0.16797,2.26779 0.12599,1.63785 0.20999,3.44368 0.084,1.76383 0.084,2.89773 h 0.16799 q 2.43576,-5.03953 5.96343,-7.26533 3.56966,-2.22579 8.60919,-2.22579 7.30731,0 11.04496,4.2416 3.73765,4.24161 3.73765,12.76681 v 29.31324 h -10.37299 v -26.5835 q 0,-6.17342 -2.05782,-9.02915 -2.0578,-2.85573 -6.46738,-2.85573 -4.70355,0 -7.51729,3.69565 -2.77174,3.69565 -2.77174,9.74308 z"
         id="path15" />
      <path
         style="font-weight:600;font-size:85.3333px;font-family:Arimo;-inkscape-font-specification:'Arimo Semi-Bold';text-align:center;text-anchor:middle;white-space:pre;fill:#020415;fill-opacity:1;stroke-width:1.00791"
         d="m 498.43647,540.8399 q -6.67738,0 -10.28903,-3.56967 -3.61167,-3.61166 -3.61167,-10.07905 0,-7.05534 4.61957,-10.75098 4.61957,-3.69566 13.85869,-3.86365 l 9.95307,-0.16798 v -2.39377 q 0,-4.78755 -1.84783,-7.01334 -1.80583,-2.26779 -5.83745,-2.26779 -3.86363,0 -5.66947,1.59585 -1.80582,1.55386 -2.18379,5.08153 l -10.83498,-0.62994 q 2.1838,-13.06078 19.0662,-13.06078 8.60919,0 13.14477,4.15761 4.57756,4.11561 4.57756,11.80089 v 17.55435 q 0,3.65365 0.83993,5.20751 0.88191,1.51185 3.0657,1.51185 1.25988,0 2.56177,-0.25197 v 5.83744 q -1.93183,0.46197 -3.48567,0.67194 -1.51186,0.25198 -3.52767,0.25198 -4.36759,0 -6.4254,-2.1838 -2.01581,-2.18379 -2.39378,-6.59337 h -0.25197 q -2.60375,4.70355 -6.3834,6.92935 -3.77965,2.22579 -8.94515,2.22579 z m 14.53063,-22.3419 -6.80336,0.12599 q -4.53558,0.12598 -6.59339,0.92391 -2.0578,0.83992 -3.14969,2.56175 -1.09191,1.72185 -1.09191,4.53558 0,3.35968 1.63785,5.08153 1.67985,1.72183 4.57757,1.72183 3.2337,0 5.83745,-1.63784 2.60375,-1.63785 4.07362,-4.49358 1.51186,-2.89773 1.51186,-6.04743 z"
         id="path14" />
      <path
         style="font-weight:600;font-size:85.3333px;font-family:Arimo;-inkscape-font-specification:'Arimo Semi-Bold';text-align:center;text-anchor:middle;white-space:pre;fill:#020415;fill-opacity:1;stroke-width:1.00791"
         d="m 480.56571,523.20156 q 0,8.5252 -6.4254,13.10276 -6.42539,4.53558 -18.60425,4.53558 -22.2159,0 -25.82757,-15.83252 l 10.58301,-1.84782 q 1.25988,4.91354 5.03953,7.18133 3.82163,2.22578 10.49901,2.22578 6.92935,0 10.49901,-2.18379 3.56966,-2.22579 3.56966,-6.59338 0,-2.64575 -1.42786,-4.32559 -1.42786,-1.67984 -4.03163,-2.81374 -1.67983,-0.75593 -4.53556,-1.42787 -2.85574,-0.71393 -6.76137,-1.55384 -4.53557,-1.04991 -7.26532,-1.88983 -2.68774,-0.83991 -4.36759,-1.63784 -1.67983,-0.83992 -3.1077,-1.84783 -2.81373,-1.88982 -4.36759,-4.82955 -1.55386,-2.98171 -1.55386,-7.22331 0,-7.85327 5.96345,-12.05287 5.96343,-4.2416 17.26037,-4.2416 10.667,0 16.12648,3.31768 5.45949,3.3177 7.26531,11.08696 l -10.66698,1.55385 q -1.04991,-4.11561 -4.15761,-6.08942 -3.10772,-2.01581 -8.77718,-2.01581 -6.13142,0 -9.23914,1.97381 -3.1077,1.97382 -3.1077,5.87945 0,2.43577 1.25988,4.03162 1.30188,1.55386 3.77965,2.64575 2.30978,1.09189 9.95306,2.72974 3.98963,0.88192 7.13933,1.72185 3.14971,0.83991 5.33349,1.76383 1.80584,0.79792 3.2757,1.72184 1.51186,0.92391 2.60375,2.0578 1.97381,1.93182 3.02372,4.61957 1.0499,2.68774 1.0499,6.25741 z"
         id="path13" />
      <path
         style="font-weight:600;font-size:85.3333px;font-family:Arimo;-inkscape-font-specification:'Arimo Semi-Bold';text-align:center;text-anchor:middle;white-space:pre;fill:#3772ff;fill-opacity:1;stroke-width:1.00791"
         d="m 425.68921,494.56025 v 45.43973 h -10.37302 v -45.43973 z"
         id="path12" />
      <path
         style="font-weight:600;font-size:85.3333px;font-family:Arimo;-inkscape-font-specification:'Arimo Semi-Bold';text-align:center;text-anchor:middle;white-space:pre;fill:#3772ff;fill-opacity:1;stroke-width:1.00791"
         d="m 406.11906,489.39474 v 50.60524 h -10.91898 v -50.60524 h -19.48616 v -8.56719 h 49.97529 v 8.56719 z"
         id="path10" />
      <path
         style="font-weight:600;font-size:85.3333px;font-family:Arimo;-inkscape-font-specification:'Arimo Semi-Bold';text-align:center;text-anchor:middle;white-space:pre;fill:#020415;fill-opacity:1;stroke-width:1.00791"
         d="m 371.77564,480.82755 -0.0469,59.17243 h -10.41502 l 0.0469,-59.17243 z"
         id="path9" />
      <path
         style="font-weight:600;font-size:85.3333px;font-family:Arimo;-inkscape-font-specification:'Arimo Semi-Bold';text-align:center;text-anchor:middle;white-space:pre;fill:#020415;fill-opacity:1;stroke-width:1.00791"
         d="m 325.90069,540.8399 q -6.67737,0 -10.28903,-3.56967 Q 312,533.65857 312,527.19118 q 0,-7.05534 4.61956,-10.75098 4.61957,-3.69566 13.85869,-3.86365 l 9.95307,-0.16798 v -2.39377 q 0,-4.78755 -1.84782,-7.01334 -1.80584,-2.26779 -5.83746,-2.26779 -3.86363,0 -5.66947,1.59585 -1.80582,1.55386 -2.18379,5.08153 l -10.83498,-0.62994 q 2.1838,-13.06078 19.06621,-13.06078 8.60918,0 13.14476,4.15761 4.57757,4.11561 4.57757,11.80089 v 17.55435 q 0,3.65365 0.83992,5.20751 0.88192,1.51185 3.06571,1.51185 1.25988,0 2.56176,-0.25197 v 5.83744 q -1.93181,0.46197 -3.48567,0.67194 -1.51186,0.25198 -3.52767,0.25198 -4.36759,0 -6.4254,-2.1838 -2.01581,-2.18379 -2.39377,-6.59337 h -0.25198 q -2.60375,4.70355 -6.3834,6.92935 -3.77963,2.22579 -8.94515,2.22579 z m 14.53063,-22.3419 -6.80336,0.12599 q -4.53558,0.12598 -6.59338,0.92391 -2.05781,0.83992 -3.1497,2.56175 -1.0919,1.72185 -1.0919,4.53558 0,3.35968 1.63784,5.08153 1.67985,1.72183 4.57757,1.72183 3.2337,0 5.83745,-1.63784 2.60376,-1.63785 4.07362,-4.49358 1.51186,-2.89773 1.51186,-6.04743 z"
         id="path8" />
      <path
         style="font-weight:600;font-size:85.3333px;font-family:Arimo;-inkscape-font-specification:'Arimo Semi-Bold';text-align:center;text-anchor:middle;white-space:pre;fill:#020415;fill-opacity:1;stroke-width:1.00791"
         d="m 275.96095,517.53209 v 22.46789 H 264.99999 V 480.82755 H 308 v 8.56719 H 275.96095 V 508.9229 H 307 v 8.60919 z"
         id="text1" />
    </g>
  </g>
</svg>
